<?xml version="1.0" standalone="no"?>
<!DOCTYPE svg PUBLIC "-//W3C//DTD SVG 20010904//EN"
 "http://www.w3.org/TR/2001/REC-SVG-20010904/DTD/svg10.dtd">
<svg version="1.0" xmlns="http://www.w3.org/2000/svg"
 width="256.000000pt" height="256.000000pt" viewBox="0 0 256.000000 256.000000"
 preserveAspectRatio="xMidYMid meet">
<metadata>
Created by potrace 1.14, written by Peter Selinger 2001-2017
</metadata>
<g transform="translate(0.000000,256.000000) scale(0.100000,-0.100000)"
fill="#000000" stroke="none">
<path d="M0 1280 l0 -1280 1280 0 1280 0 0 1280 0 1280 -1280 0 -1280 0 0
-1280z m2145 744 c108 -29 275 -117 275 -145 0 -22 -124 -269 -131 -262 -4 4
-21 45 -38 89 -54 141 -143 255 -227 290 -18 8 -58 14 -87 14 -172 0 -277
-160 -309 -468 -34 -340 86 -655 289 -758 54 -27 66 -29 168 -29 104 0 114 2
175 32 36 18 87 52 114 77 76 71 75 43 -3 -76 -86 -133 -180 -206 -321 -254
-42 -14 -84 -19 -175 -18 -103 0 -130 4 -193 26 -250 90 -421 305 -467 590
-20 124 -19 204 5 317 34 168 131 332 254 432 96 79 239 141 371 163 55 8 239
-3 300 -20z m-1005 0 c0 -7 -975 -1460 -996 -1484 -12 -14 -54 -25 -54 -14 0
3 180 273 401 602 221 328 447 666 503 749 80 121 106 153 124 153 12 0 22 -3
22 -6z"/>
</g>
</svg>
